<svg class="fp-pause-rounded-outline" xmlns="http://www.w3.org/2000/svg" viewBox="0 0 99.8434 99.8434"><defs><style>.fp-color-play{opacity:0.65;}.rect{fill:#fff;}</style>
</defs><title>pause-rounded-outline</title><path class="fp-color-play" d="M49.9212-.0783a50,50,0,1,0,50.0006,50A50.0562,50.0562,0,0,0,49.9212-.0783Z"/><g class="controlbutton"><path class="rect" d="M39.0036,71.9726a7.565,7.565,0,0,1-7.557-7.556v-28.99a7.5565,7.5565,0,0,1,15.113,0v28.99A7.5648,7.5648,0,0,1,39.0036,71.9726Zm0-41.904a5.3647,5.3647,0,0,0-5.3593,5.3582v28.99a5.3587,5.3587,0,0,0,10.7174,0v-28.99A5.3645,5.3645,0,0,0,39.0036,30.0686Z" filter="url(#f1)"/><path class="rect" d="M60.84,71.9726a7.5648,7.5648,0,0,1-7.556-7.556v-28.99a7.5565,7.5565,0,0,1,15.113,0v28.99A7.565,7.565,0,0,1,60.84,71.9726Zm0-41.904a5.3645,5.3645,0,0,0-5.3582,5.3582v28.99a5.3587,5.3587,0,0,0,10.7174,0v-28.99A5.3647,5.3647,0,0,0,60.84,30.0686Z" filter="url(#f1)"/></g></svg>
