<svg class="fp-play-rounded-outline" xmlns="http://www.w3.org/2000/svg" viewBox="0 0 99.844 99.8434"><defs><style>.fp-color-play{opacity:0.65;}.controlbutton{fill:#fff;}</style>
</defs>
<title>play-rounded-outline</title><path class="fp-color-play" d="M49.9217-.078a50,50,0,1,0,50,50A50.0564,50.0564,0,0,0,49.9217-.078Z"/><path class="controlbutton" d="M41.0359,71.19a5.0492,5.0492,0,0,1-2.5575-.6673c-1.8031-1.041-2.7958-3.1248-2.7958-5.8664V35.1887c0-2.7429.9933-4.8272,2.797-5.8676,1.8025-1.0422,4.1034-.86,6.48.5143L70.4782,44.5672c2.3751,1.3711,3.6826,3.2725,3.6832,5.3545s-1.3076,3.9845-3.6832,5.3562L44.9592,70.0114A7.9384,7.9384,0,0,1,41.0359,71.19Zm.0065-40.123a2.6794,2.6794,0,0,0-1.3582.3413c-1.0263.5926-1.5912,1.9349-1.5912,3.78V64.6563c0,1.8449.5649,3.1866,1.5906,3.7791,1.0281.5932,2.4733.4108,4.07-.512L69.273,53.1906c1.5983-.9227,2.478-2.0838,2.478-3.2689s-.88-2.3445-2.478-3.2666L43.754,31.9227A5.5685,5.5685,0,0,0,41.0423,31.0671Z" filter="url(#f1)"/></svg>
