<?xml version="1.0" standalone="no"?>
<!DOCTYPE svg PUBLIC "-//W3C//DTD SVG 1.1//EN" "http://www.w3.org/Graphics/SVG/1.1/DTD/svg11.dtd" >
<svg xmlns="http://www.w3.org/2000/svg">
<metadata>Generated by IcoMoon</metadata>
<defs>
<font id="icomoon" horiz-adv-x="1024">
<font-face units-per-em="1024" ascent="819.2" descent="-204.8" />
<missing-glyph horiz-adv-x="1024" />
<glyph unicode="&#x20;" horiz-adv-x="256" d="" />
<glyph unicode="&#xe001;" glyph-name="uniE001" horiz-adv-x="1230" d="M940.032-64q19.456-31.744 17.408-61.44 0-7.168-1.024-10.24-1.024-5.12-3.072-9.728t-4.096-8.704q-7.168-13.312-21.504-22.528-23.552-15.36-61.44-15.36h-502.784q-28.672 0-52.224 10.24-25.6 12.288-34.816 35.84-2.048 5.12-3.072 10.24t-1.024 10.24q-2.048 29.696 17.408 61.44l251.904 436.224q3.072 6.144 7.168 11.776t8.192 10.752q31.744 34.816 67.584 28.672h3.072q4.096-1.024 12.288-5.12 7.168-3.072 14.336-7.168 20.48-13.312 33.792-38.912zM1125.376 832q21.504 0 40.448-8.192t33.28-22.528 22.528-33.28 8.192-40.448v-635.904q0-21.504-8.192-40.448t-22.528-33.28-33.28-22.528-40.448-8.192h-108.544q-2.048 3.072-2.56 5.632t-2.56 4.608l-251.904 436.224q-25.6 45.056-63.488 69.632t-81.92 24.576q-43.008 0-80.896-24.576t-63.488-69.632l-251.904-436.224q-2.048-2.048-2.56-4.608t-2.56-5.632h-108.544q-21.504 0-40.448 8.192t-33.28 22.528-22.528 33.28-8.192 40.448v635.904q0 21.504 8.192 40.448t22.528 33.28 33.28 22.528 40.448 8.192h1020.928zM922.624-12.8l-234.496 405.504z" />
<glyph unicode="&#xe002;" glyph-name="uniE002" d="M2.048-103.936l135.168 501.76q5.12 19.456 18.432 32.256t30.72 17.408 35.328 0.512 32.256-18.432l367.616-367.616q14.336-14.336 18.432-32.256t-0.512-35.328-17.408-30.72-32.256-18.432l-501.76-135.168q-19.456-5.12-37.376 0.512t-30.208 17.92-17.92 30.208-0.512 37.376zM1021.952 743.936l-135.168-501.76q-5.12-19.456-18.432-32.256t-30.72-17.408-35.328-0.512-32.256 18.432l-367.616 367.616q-14.336 14.336-18.432 32.256t0.512 35.328 17.408 30.72 32.256 18.432l501.76 135.168q19.456 5.12 37.376-0.512t30.208-17.92 17.92-30.208 0.512-37.376z" />
<glyph unicode="&#xe003;" glyph-name="uniE003" horiz-adv-x="944" d="M409.6-192q-23.552 0-44.544 10.24t-33.28 30.72l-314.368 486.4q-11.264 16.384-14.848 34.816t-0.512 36.352 12.8 33.792 26.112 27.136q15.36 11.264 33.792 14.848t36.352 0.512 33.792-13.312 28.16-25.6l226.304-304.128 416.768 650.24q14.336 28.672 42.496 37.888t49.664-3.072q25.6-14.336 33.792-39.936t-7.168-55.296l-442.368-872.448q-11.264-21.504-32.256-34.304t-45.568-14.848h-5.12z" />
<glyph unicode="&#xe004;" glyph-name="uniE004" horiz-adv-x="1895" d="M551.936-192q-33.792 0-59.392 23.552l-463.872 422.912q-14.336 12.288-21.504 29.696t-7.168 35.84 7.168 35.84 21.504 29.696l463.872 422.912q13.312 12.288 30.208 18.432t33.792 5.12 32.768-8.192 28.16-20.48q25.6-27.648 23.552-64t-28.672-61.952l-392.192-357.376 392.192-357.376q26.624-25.6 28.672-61.952t-23.552-64q-26.624-28.672-65.536-28.672zM1342.464-192q-36.864 0-65.536 28.672-24.576 27.648-22.528 64t28.672 61.952l391.168 357.376-391.168 357.376q-26.624 25.6-28.672 61.952t22.528 64q12.288 13.312 28.672 20.48t33.28 8.192 33.792-5.12 30.208-18.432l462.848-422.912q29.696-26.624 29.696-65.536t-29.696-65.536l-462.848-422.912q-26.624-23.552-60.416-23.552zM837.632-192q-12.288 0-22.528 3.072-17.408 4.096-31.232 15.36t-22.528 25.6-11.776 31.744 2.048 35.84l220.16 845.824q4.096 17.408 15.36 31.232t25.6 22.528 31.744 11.264 35.84-1.536q17.408-5.12 31.232-15.872t22.528-25.088 11.264-31.744-1.536-35.84l-220.16-845.824q-8.192-29.696-32.256-48.128t-53.76-18.432z" />
<glyph unicode="&#xe005;" glyph-name="uniE005" horiz-adv-x="1342" d="M61.44 71.168q38.912-6.144 72.704-24.064t60.416-44.544 44.544-60.416 24.064-72.704q4.096-19.456-9.216-36.864-14.336-15.36-34.816-15.36h-164.864q-19.456 0-32.256 12.8t-12.8 32.256v164.864q0 20.48 15.36 34.816 17.408 13.312 36.864 9.216zM53.248 282.112q87.040 0 163.84-33.28t133.632-90.112 90.112-133.632 33.28-163.84q0-22.528-15.36-37.888t-37.888-15.36q-21.504 0-37.376 15.36t-15.872 37.888q0 64.512-24.576 121.856t-67.584 100.352-100.352 67.584-121.856 24.576q-22.528 0-37.888 15.872t-15.36 37.376q0 22.528 15.36 37.888t37.888 15.36zM53.248 497.152q88.064 0 168.96-22.528t151.552-64 129.024-99.84 99.84-129.024 64-151.552 22.528-168.96q0-22.528-15.36-37.888t-37.888-15.36q-21.504 0-36.864 15.36t-15.36 37.888q0 109.568-41.984 205.824t-114.176 168.448-168.448 114.176-205.824 41.984q-22.528 0-37.888 15.36t-15.36 36.864q0 22.528 15.36 37.888t37.888 15.36zM1190.912 832q31.744 0 59.392-11.776t48.128-32.256 32.256-48.128 11.776-59.392v-604.16q0-31.744-11.776-59.392t-32.256-48.128-48.128-32.256-59.392-11.776h-400.384q-11.264 135.168-68.608 253.44t-147.968 208.384-209.92 146.432-254.464 66.56v80.896q0 31.744 11.776 59.392t32.768 48.128 48.64 32.256 58.368 11.776h929.792z" />
<glyph unicode="&#xe006;" glyph-name="uniE006" horiz-adv-x="1492" d="M1387.52-135.68q-33.792-26.624-75.264-41.472t-87.552-14.848h-957.44q-47.104 0-88.576 14.848t-75.264 41.472l454.656 394.24 87.040-74.752q21.504-19.456 47.616-28.672t52.736-9.216q27.648 0 53.76 9.216t47.616 28.672l87.040 74.752zM493.568 314.88l-448.512-389.12q-21.504 32.768-33.28 70.144t-11.776 79.36v489.472q0 39.936 10.752 75.776t30.208 66.56zM97.28 771.584q34.816 28.672 77.824 44.544t92.16 15.872h957.44q49.152 0 91.648-15.872t77.312-44.544l-602.112-523.264q-20.48-17.408-46.080-17.408t-45.056 17.408zM998.4 314.88l451.584 392.192q20.48-30.72 31.232-66.56t10.752-75.776v-489.472q0-41.984-12.288-79.36t-33.792-70.144z" />
<glyph unicode="&#xe007;" glyph-name="uniE007" horiz-adv-x="921" d="M0 695.808q0 46.080 14.848 77.312t40.96 46.080 60.928 12.288 73.728-25.088l651.264-376.832q39.936-22.528 59.392-51.2t19.456-58.368-19.456-58.88-59.392-51.712l-651.264-375.808q-38.912-22.528-73.728-25.088t-60.928 12.288-40.96 46.080-14.848 77.312v751.616z" />
<glyph unicode="&#xe008;" glyph-name="uniE008" horiz-adv-x="612" d="M98.304-192q-40.96 0-69.632 28.672t-28.672 69.632v827.392q0 40.96 28.672 69.632t69.632 28.672 69.632-28.672 28.672-69.632v-827.392q0-40.96-28.672-69.632t-69.632-28.672zM514.048-192q-40.96 0-69.632 28.672t-28.672 69.632v827.392q0 40.96 28.672 69.632t69.632 28.672 69.632-28.672 28.672-69.632v-827.392q0-40.96-28.672-69.632t-69.632-28.672z" />
<glyph unicode="&#xe009;" glyph-name="uniE009" d="M912.384-192h-800.768q-23.552 0-43.52 8.704t-35.328 24.064-24.064 35.328-8.704 43.52v800.768q0 22.528 8.704 43.008t24.064 35.84 35.328 24.064 43.52 8.704h800.768q22.528 0 43.008-8.704t35.84-24.064 24.064-35.84 8.704-43.008v-800.768q0-23.552-8.704-43.52t-24.064-35.328-35.84-24.064-43.008-8.704zM866.304 480.768l-232.448 169.984q-13.312 10.24-28.16 2.56t-14.848-24.064v-110.592h-38.912q-95.232 0-175.616-36.352t-135.68-99.328-79.872-146.944-9.216-178.176q3.072-20.48 8.704-40.96t13.824-39.936q3.072-8.192 11.264-7.168t10.24 9.216q9.216 71.68 43.008 133.12t85.504 107.008 117.76 71.68 139.776 26.112h9.216v-93.184q0-17.408 14.848-24.576t29.184 3.072l232.448 176.128q12.288 9.216 18.432 23.040t6.144 28.16-6.656 28.16-18.944 23.040z" />
<glyph unicode="&#xe00a;" glyph-name="uniE00A" d="M692.224 424.448h-107.52v58.368q0 23.552 7.68 35.328t40.448 11.776h58.368v117.76h-94.208q-84.992 0-119.296-40.448t-34.304-113.152v-69.632h-69.632v-117.76h69.632v-342.016h141.312v342.016h95.232zM512 832q105.472 0 199.168-40.448t162.816-109.568 109.568-162.816 40.448-199.168q0-70.656-18.432-136.192t-51.712-122.368-79.872-103.424-103.424-79.872-122.368-51.712-136.192-18.432-136.192 18.432-122.368 51.712-103.424 79.872-79.872 103.424-51.712 122.368-18.432 136.192 18.432 136.192 51.712 122.368 79.872 103.424 103.424 79.872 122.368 51.712 136.192 18.432z" />
<glyph unicode="&#xe00b;" glyph-name="uniE00B" horiz-adv-x="725" d="M618.496 815.616q15.36 13.312 33.792 15.872t34.816-4.608 27.136-22.528 10.752-35.84v-897.024q0-20.48-10.752-35.84t-27.136-22.528-34.816-5.12-33.792 16.384l-241.664 221.184h-102.4q-57.344 0-107.008 21.504t-87.040 58.88-58.88 87.040-21.504 107.008q0 56.32 21.504 106.496t58.88 87.552 87.040 58.88 107.008 21.504h102.4l241.664 221.184z" />
<glyph unicode="&#xe00c;" glyph-name="uniE00C" d="M788.48 424.448q40.96 28.672 69.632 71.68-34.816-16.384-79.872-22.528 44.032 26.624 61.44 76.8-20.48-11.264-42.496-19.968t-45.568-13.824q-19.456 20.48-45.056 32.256t-55.296 11.776q-28.672 0-53.76-10.752t-44.032-29.696-29.696-44.032-10.752-53.76q0-16.384 3.072-31.744-87.040 5.12-159.744 43.52t-124.928 100.864q-8.192-15.36-13.312-32.768t-5.12-36.864q0-35.84 16.896-66.048t44.544-48.64q-33.792 2.048-62.464 17.408v-2.048q0-50.176 31.232-87.552t79.36-47.616q-15.36-4.096-35.84-4.096h-13.824t-12.8 2.048q13.312-41.984 48.128-68.608t80.896-27.648q-35.84-27.648-78.848-43.008t-92.16-15.36h-16.384t-16.384 1.024q46.080-29.696 99.328-45.568t111.616-15.872q95.232 0 168.448 35.84t123.392 92.16 75.776 125.952 25.6 138.24v9.216t-1.024 9.216zM512 832q106.496 0 199.68-40.448t162.816-109.568 109.568-162.816 39.936-199.168q0-106.496-39.936-199.68t-109.568-162.816-162.816-109.568-199.68-39.936-199.68 39.936-162.304 109.568-109.568 162.816-40.448 199.68q0 70.656 18.432 136.192t51.712 122.368 79.872 103.424 103.424 79.872 122.368 51.712 136.192 18.432z" />
<glyph unicode="&#xe00d;" glyph-name="uniE00D" horiz-adv-x="1450" d="M1425.408 164.352q24.576-25.6 24.576-60.928t-24.576-60.928q-26.624-24.576-60.416-24.576-35.84 0-60.416 24.576l-156.672 156.672-155.648-156.672q-26.624-24.576-60.416-24.576-35.84 0-61.44 24.576-24.576 25.6-24.576 60.928t24.576 60.928l156.672 155.648-156.672 156.672q-24.576 24.576-24.576 59.904t24.576 60.928q25.6 24.576 60.928 24.576t60.928-24.576l155.648-156.672 156.672 156.672q24.576 24.576 59.904 24.576t60.928-24.576q24.576-25.6 24.576-60.928t-24.576-59.904l-156.672-156.672zM618.496 815.616q15.36 13.312 33.792 15.872t34.816-4.608 27.136-22.528 10.752-35.84v-897.024q0-20.48-10.752-35.84t-27.136-22.528-34.816-5.12-33.792 16.384l-241.664 221.184h-102.4q-57.344 0-107.008 21.504t-87.040 58.88-58.88 87.040-21.504 107.008q0 56.32 21.504 106.496t58.88 87.552 87.040 58.88 107.008 21.504h102.4l241.664 221.184z" />
<glyph unicode="&#xe00e;" glyph-name="uniE00E" d="M879.616 531.968q32.768 32.768 32.768 77.824t-32.768 77.824q-16.384 17.408-36.352 25.088t-41.472 7.68q-20.48 0-40.96-7.68t-36.864-25.088l-98.304-97.28q-21.504-21.504-28.672-50.176t0-56.32l41.984 41.984q17.408 17.408 39.936 17.408t38.912-17.408q17.408-16.384 17.408-38.912t-17.408-39.936l-41.984-41.984q27.648-7.168 56.32 0t50.176 28.672l97.28 98.304zM398.336 49.664q21.504 21.504 28.672 50.176t0 56.32l-41.984-41.984q-16.384-16.384-39.936-16.384t-38.912 16.384q-17.408 16.384-17.408 38.912t17.408 39.936l41.984 41.984q-14.336 3.072-27.648 3.072-21.504 0-41.984-7.68t-36.864-24.064l-97.28-98.304q-16.384-16.384-24.576-36.352t-8.192-41.472 8.192-41.984 24.576-36.864 36.352-24.576 41.472-8.192 41.472 8.192 36.352 24.576l98.304 98.304zM959.488 767.488q31.744-32.768 48.128-73.728t16.384-83.968-16.384-83.968-48.128-72.704l-98.304-98.304q-32.768-32.768-73.728-48.64t-83.968-15.872q-29.696 0-57.856 7.68t-53.76 23.040l-80.896-80.896q18.432-31.744 26.112-67.584t3.072-71.168-19.968-69.12-43.008-61.44l-98.304-98.304q-32.768-32.768-73.216-48.64t-83.456-15.872-83.968 15.872-73.728 48.64-48.64 73.728-15.872 83.968 15.872 83.456 48.64 73.216l98.304 98.304q27.648 27.648 61.44 43.008t69.12 19.968 71.168-3.072 67.584-26.112l79.872 80.896q-18.432 31.744-25.6 67.584t-2.56 71.168 19.968 69.12 43.008 61.44l98.304 98.304q31.744 31.744 72.704 48.128t83.968 16.384 83.968-16.384 73.728-48.128z" />
<glyph unicode="&#xe00f;" glyph-name="uniE00F" d="M982.016 55.808q21.504-21.504 31.744-48.128t10.24-54.784-10.24-54.784-31.744-48.128q-44.032-41.984-103.424-41.984-27.648 0-54.272 10.752t-48.128 31.232l-264.192 265.216-264.192-265.216q-21.504-20.48-48.128-31.232t-54.272-10.752q-59.392 0-103.424 41.984-21.504 21.504-31.744 48.128t-10.24 54.784 10.24 54.784 31.744 48.128l265.216 264.192-265.216 264.192q-21.504 21.504-31.744 48.128t-10.24 54.784 10.24 54.784 31.744 48.128 48.128 31.744 54.784 10.24 54.784-10.24 48.128-31.744l264.192-265.216 264.192 265.216q21.504 21.504 48.128 31.744t54.784 10.24 54.784-10.24 48.128-31.744 31.744-48.128 10.24-54.784-10.24-54.784-31.744-48.128l-265.216-264.192z" />
<glyph unicode="&#xe010;" glyph-name="uniE010" horiz-adv-x="5571" d="M486.4-140.8q-100.352 0-188.928 38.4t-154.624 104.448-104.448 154.624-38.4 188.928 38.4 188.928 104.448 154.624 154.624 104.448 188.928 38.4 188.928-38.4 154.624-104.448 104.448-154.624 38.4-188.928-38.4-188.928-104.448-154.624-154.624-104.448-188.928-38.4zM486.4 761.344q-86.016 0-161.792-32.768t-132.096-89.088-89.088-132.096-32.768-161.792 32.768-161.28 89.088-131.584 132.096-89.088 161.792-32.768 161.28 32.768 131.584 89.088 89.088 131.584 32.768 161.28-32.768 161.792-89.088 132.096-131.584 89.088-161.28 32.768zM364.544 499.2q0 24.576 15.36 33.28t36.864-3.584l265.216-152.576q21.504-13.312 21.504-30.72t-21.504-29.696l-265.216-153.6q-21.504-12.288-36.864-3.584t-15.36 34.304v306.176zM1428.48 637.44q-11.264 8.192-25.088 11.264t-27.136 3.072q-32.768 0-52.224-18.432t-19.456-54.272v-53.248h109.568v-116.736h-109.568v-407.552h-143.36v407.552h-84.992v116.736h84.992v62.464q0 90.112 51.2 138.24t135.168 48.128q25.6 0 45.056-3.584t35.84-10.752v-122.88zM1625.088 1.536h-145.408v762.88h145.408v-762.88zM1929.216-9.728q-57.344 0-104.448 19.968t-80.896 56.32-52.736 86.528-18.944 110.592 18.944 111.104 52.736 87.040 80.896 56.32 104.448 19.968 104.448-19.968 80.896-56.32 52.736-87.040 18.944-111.104-18.944-110.592-52.736-86.528-80.896-56.32-104.448-19.968zM1929.216 414.208q-55.296 0-83.968-42.496t-28.672-108.032 28.672-108.032 83.968-42.496 83.968 42.496 28.672 108.032-28.672 108.032-83.968 42.496zM2701.312 192l93.184 333.824h141.312l-159.744-524.288h-134.144l-84.992 321.536-86.016-321.536h-134.144l-158.72 524.288h145.408l93.184-333.824 86.016 333.824h111.616zM3112.96-192h-145.408v717.824h145.408v-43.008q17.408 20.48 53.248 37.888t77.824 17.408q57.344 0 101.888-22.016t75.264-59.904 46.592-87.552 15.872-104.96-15.872-104.96-46.592-87.040-75.264-59.392-101.888-22.016q-41.984 0-77.824 16.896t-53.248 37.376v-236.544zM3112.96 177.664q13.312-27.648 39.936-44.544t58.368-16.896q29.696 0 53.248 11.264t39.424 31.232 24.576 46.592 8.704 58.368-8.704 58.368-24.576 46.592-39.424 31.232-53.248 11.264q-32.768 0-58.88-17.408t-39.424-44.032v-172.032zM3674.112 1.536h-145.408v762.88h145.408v-762.88zM4045.824 1.536v28.672q-14.336-14.336-49.664-26.112t-78.336-11.776q-39.936 0-75.264 11.264t-61.952 32.768-42.496 53.248-15.872 72.704q0 36.864 15.872 68.096t43.52 53.248 64.512 34.304 79.872 12.288q33.792 0 68.608-9.728t51.2-20.992v38.912q0 32.768-20.992 56.832t-65.024 24.064q-30.72 0-49.664-12.8t-28.16-36.352h-138.24q6.144 35.84 24.576 66.56t47.104 53.248 66.048 35.328 82.432 12.8q105.472 0 163.328-53.76t57.856-147.968v-334.848h-139.264zM4045.824 181.76q-10.24 21.504-36.864 33.792t-58.368 12.288q-17.408 0-34.304-3.584t-29.696-11.776-20.992-20.48-8.192-28.672q0-17.408 8.192-29.696t20.992-19.968 29.696-11.264 34.304-3.584q31.744 0 58.368 12.288t36.864 33.792v36.864zM4317.184-192l76.8 191.488-200.704 526.336h153.6l120.832-348.16 119.808 348.16h146.432l-273.408-717.824h-143.36zM5202.944 172.544q-14.336-83.968-73.728-133.12t-158.72-49.152q-57.344 0-103.936 19.968t-79.872 55.808-51.712 86.016-18.432 111.616q0 59.392 18.944 109.568t52.224 87.040 79.36 57.344 101.376 20.48q57.344 0 101.888-19.456t74.752-53.76 46.080-82.432 15.872-105.472v-44.032h-350.208q4.096-59.392 34.304-92.672t79.36-33.28q37.888 0 63.488 16.384t34.816 49.152h134.144zM4860.928 321.024h202.752q-1.024 40.96-24.576 69.632t-69.632 28.672q-43.008 0-71.168-24.576t-37.376-73.728zM5570.56 382.464q-30.72 18.432-72.704 18.432-36.864 0-64.512-19.456t-35.84-55.296v-324.608h-145.408v524.288h145.408v-51.2q17.408 27.648 48.128 45.568t69.632 17.92q18.432 0 33.792-3.072t21.504-7.168v-145.408z" />
<glyph unicode="&#xe011;" glyph-name="uniE011" d="M512-192q-70.656 0-136.192 18.432t-122.368 51.712-103.424 79.872-79.872 103.424-51.712 122.368-18.432 136.192 18.432 136.192 51.712 122.368 79.872 103.424 103.424 79.872 122.368 51.712 136.192 18.432q105.472 0 199.168-40.448t162.816-109.568 109.568-162.816 40.448-199.168q0-70.656-18.432-136.192t-51.712-122.368-79.872-103.424-103.424-79.872-122.368-51.712-136.192-18.432zM512 761.344q-91.136 0-171.52-34.816t-140.288-94.72-94.72-140.288-34.816-171.52 34.816-171.52 94.72-140.288 140.288-94.72 171.52-34.816 171.52 34.816 140.288 94.72 94.72 140.288 34.816 171.52-34.816 171.52-94.72 140.288-140.288 94.72-171.52 34.816zM388.096 457.216q0 33.792 19.968 45.568t49.664-4.608l238.592-138.24q28.672-16.384 28.672-39.936t-28.672-39.936l-238.592-138.24q-28.672-16.384-49.152-4.608t-20.48 45.568v274.432z" />
<glyph unicode="&#xe012;" glyph-name="uniE012" d="M512-192q-70.656 0-136.192 18.432t-122.368 51.712-103.424 79.872-79.872 103.424-51.712 122.368-18.432 136.192 18.432 136.192 51.712 122.368 79.872 103.424 103.424 79.872 122.368 51.712 136.192 18.432q105.472 0 199.168-40.448t162.816-109.568 109.568-162.816 40.448-199.168q0-70.656-18.432-136.192t-51.712-122.368-79.872-103.424-103.424-79.872-122.368-51.712-136.192-18.432zM512 761.344q-91.136 0-171.52-34.816t-140.288-94.72-94.72-140.288-34.816-171.52 34.816-171.52 94.72-140.288 140.288-94.72 171.52-34.816 171.52 34.816 140.288 94.72 94.72 140.288 34.816 171.52-34.816 171.52-94.72 140.288-140.288 94.72-171.52 34.816zM424.96 104.96q-17.408 0-29.184 12.288t-11.776 29.696v346.112q0 17.408 11.776 29.696t29.184 12.288 29.184-12.288 11.776-29.696v-346.112q0-17.408-11.776-29.696t-29.184-12.288zM599.040 104.96q-17.408 0-29.184 12.288t-11.776 29.696v346.112q0 17.408 11.776 29.696t29.184 12.288 29.184-12.288 11.776-29.696v-346.112q0-17.408-11.776-29.696t-29.184-12.288z" />
<glyph unicode="&#xe101;" glyph-name="uniE101" horiz-adv-x="1239" d="M1025.024-192v0 0h-791.552l395.264 685.056 250.88-434.176zM1239.040 832v-850.944h-206.848l-331.776 574.464-71.68 124.928-71.68-124.928-331.776-574.464h-225.28v850.944h1239.040z" />
<glyph unicode="&#xe102;" glyph-name="uniE102" d="M0-192l186.368 697.344 510.976-510.976zM1024 832l-186.368-697.344-510.976 510.976z" />
<glyph unicode="&#xe103;" glyph-name="uniE103" horiz-adv-x="863" d="M380.928-192l-380.928 543.744 112.64 78.848 249.856-281.6 414.72 683.008 86.016-47.104z" />
<glyph unicode="&#xe104;" glyph-name="uniE104" horiz-adv-x="2005" d="M560.128-192l-560.128 512 560.128 512 125.952-137.216-410.624-374.784 410.624-374.784zM1444.864-192l-125.952 137.216 410.624 374.784-410.624 374.784 125.952 137.216 560.128-512zM977.92-146.944l-180.224 47.104 230.4 886.784 180.224-47.104z" />
<glyph unicode="&#xe105;" glyph-name="uniE105" horiz-adv-x="1357" d="M11.264 42.496q46.080 0 86.528-17.408t71.168-48.128 48.128-71.168 17.408-86.528v-11.264h-234.496v234.496h11.264zM11.264 258.56q90.112 0 170.496-34.816t139.776-94.208 94.208-139.776 34.816-170.496v-11.264h-110.592v11.264q0 67.584-26.112 127.488t-70.656 104.448-104.448 70.656-127.488 26.112h-11.264v110.592h11.264zM11.264 482.816q137.216 0 258.048-52.224t210.944-142.336 142.336-210.944 52.224-258.048v-11.264h-110.592v11.264q0 114.688-43.52 215.040t-118.784 175.616-175.616 118.784-215.040 43.52h-11.264v110.592h11.264zM1356.8 832v-946.176h-575.488q-12.288 141.312-71.68 264.704t-154.624 217.088-219.648 152.064-265.728 69.632v242.688h1287.168z" />
<glyph unicode="&#xe106;" glyph-name="uniE106" horiz-adv-x="1492" d="M1491.968 732.672v-835.584l-481.28 417.792zM1458.176-192h-1424.384l515.072 447.488 196.608-169.984 196.608 169.984zM1469.44 832l-723.968-628.736-723.968 628.736h1447.936zM0-102.912v835.584l481.28-417.792z" />
<glyph unicode="&#xe107;" glyph-name="uniE107" horiz-adv-x="887" d="M886.784 320l-886.784-512v1024z" />
<glyph unicode="&#xe108;" glyph-name="uniE108" horiz-adv-x="612" d="M196.608-192h-196.608v1024h196.608v-1024zM612.352-192h-196.608v1024h196.608v-1024z" />
<glyph unicode="&#xe109;" glyph-name="uniE109" d="M934.912 429.568l-344.064 252.928v-163.84h-38.912q-95.232 0-175.616-36.352t-135.68-99.328-79.872-146.944-9.216-178.176q3.072-20.48 8.704-40.96t13.824-39.936q3.072-8.192 11.264-7.168t10.24 9.216q9.216 71.68 43.008 133.12t85.504 107.008 117.76 71.68 139.776 26.112h9.216v-147.456zM1024 832v-1024h-1024v1024h1024z" />
<glyph unicode="&#xe10a;" glyph-name="uniE10A" d="M692.224 424.448h-107.52v58.368q0 23.552 7.68 35.328t40.448 11.776h58.368v117.76h-94.208q-84.992 0-119.296-40.448t-34.304-113.152v-69.632h-69.632v-117.76h69.632v-342.016h141.312v342.016h95.232zM1024 832v-1024h-1024v1024h1024z" />
<glyph unicode="&#xe10b;" glyph-name="uniE10B" horiz-adv-x="587" d="M586.752-192l-301.056 274.432h-285.696v475.136h285.696l301.056 274.432v-1024z" />
<glyph unicode="&#xe10c;" glyph-name="uniE10C" d="M783.36 419.328q41.984 29.696 70.656 72.704-18.432-8.192-38.912-13.824t-41.984-8.704q45.056 27.648 62.464 77.824-21.504-11.264-43.52-20.48t-46.592-14.336q-19.456 21.504-45.568 33.28t-55.808 11.776-55.296-10.752-45.056-30.208-30.208-45.056-10.752-54.272q0-17.408 3.072-32.768-87.040 5.12-161.792 44.032t-126.976 103.424q-8.192-16.384-13.824-33.792t-5.632-37.888q0-35.84 17.408-66.56t45.056-49.152q-33.792 1.024-63.488 17.408v-2.048q0-51.2 31.744-89.088t80.896-48.128q-15.36-4.096-35.84-4.096h-14.336t-13.312 2.048q14.336-43.008 49.664-70.144t81.408-28.16q-35.84-28.672-79.872-44.032t-93.184-15.36h-17.408t-16.384 1.024q46.080-29.696 100.352-46.080t113.664-16.384q97.28 0 172.032 36.352t125.44 93.696 76.8 128 26.112 140.288v9.728t-1.024 9.728zM1024 832v-1024h-1024v1024h1024z" />
<glyph unicode="&#xe10d;" glyph-name="uniE10D" horiz-adv-x="1270" d="M1085.44 320l184.32-184.32-104.448-105.472-185.344 185.344-184.32-185.344-104.448 105.472 184.32 184.32-184.32 184.32 104.448 105.472 184.32-185.344 185.344 185.344 104.448-105.472zM586.752-192l-301.056 274.432h-285.696v475.136h285.696l301.056 274.432v-1024z" />
<glyph unicode="&#xe10e;" glyph-name="uniE10E" d="M574.464 450.048l76.8 76.8 70.656-63.488-79.872-80.896 32.768-32.768 215.040 216.064-132.096 132.096-216.064-215.040zM449.536 189.952l-75.776-74.752-72.704 60.416 35.84 36.864 45.056 45.056-32.768 32.768-215.040-216.064 132.096-132.096 216.064 215.040zM574.464 315.904l-58.368-58.368 99.328-100.352-349.184-349.184-266.24 266.24 349.184 349.184 99.328-99.328 59.392 59.392-99.328 99.328 349.184 349.184 266.24-266.24-349.184-349.184z" />
<glyph unicode="&#xe10f;" glyph-name="uniE10F" d="M680.96 320l343.040-343.040-168.96-168.96-343.040 343.040-343.040-343.040-168.96 168.96 343.040 343.040-343.040 343.040 168.96 168.96 343.040-343.040 343.040 343.040 168.96-168.96z" />
<glyph unicode="&#xe110;" glyph-name="uniE110" d="M512-192q-70.656 0-136.192 18.432t-122.368 51.712-103.424 79.872-79.872 103.424-51.712 122.368-18.432 136.192 18.432 136.192 51.712 122.368 79.872 103.424 103.424 79.872 122.368 51.712 136.192 18.432q105.472 0 199.168-40.448t162.816-109.568 109.568-162.816 40.448-199.168q0-70.656-18.432-136.192t-51.712-122.368-79.872-103.424-103.424-79.872-122.368-51.712-136.192-18.432zM512 757.248q-90.112 0-169.984-34.304t-139.264-93.696-93.696-139.264-34.304-169.984 34.304-169.984 93.696-139.264 139.264-93.696 169.984-34.304 169.984 34.304 139.264 93.696 93.696 139.264 34.304 169.984-34.304 169.984-93.696 139.264-139.264 93.696-169.984 34.304zM384 480.768q0 26.624 15.872 35.84t39.424-4.096l279.552-160.768q22.528-13.312 22.528-31.744t-22.528-31.744l-279.552-160.768q-23.552-13.312-39.424-4.096t-15.872 35.84v321.536z" />
<glyph unicode="&#xe111;" glyph-name="uniE111" d="M512-192q-70.656 0-136.192 18.432t-122.368 51.712-103.424 79.872-79.872 103.424-51.712 122.368-18.432 136.192 18.432 136.192 51.712 122.368 79.872 103.424 103.424 79.872 122.368 51.712 136.192 18.432q105.472 0 199.168-40.448t162.816-109.568 109.568-162.816 40.448-199.168q0-70.656-18.432-136.192t-51.712-122.368-79.872-103.424-103.424-79.872-122.368-51.712-136.192-18.432zM512 761.344q-91.136 0-171.52-34.816t-140.288-94.72-94.72-140.288-34.816-171.52 34.816-171.52 94.72-140.288 140.288-94.72 171.52-34.816 171.52 34.816 140.288 94.72 94.72 140.288 34.816 171.52-34.816 171.52-94.72 140.288-140.288 94.72-171.52 34.816zM753.664 320l-364.544-210.944v421.888z" />
<glyph unicode="&#xe112;" glyph-name="uniE112" d="M512-192q-70.656 0-136.192 18.432t-122.368 51.712-103.424 79.872-79.872 103.424-51.712 122.368-18.432 136.192 18.432 136.192 51.712 122.368 79.872 103.424 103.424 79.872 122.368 51.712 136.192 18.432q105.472 0 199.168-40.448t162.816-109.568 109.568-162.816 40.448-199.168q0-70.656-18.432-136.192t-51.712-122.368-79.872-103.424-103.424-79.872-122.368-51.712-136.192-18.432zM512 761.344q-91.136 0-171.52-34.816t-140.288-94.72-94.72-140.288-34.816-171.52 34.816-171.52 94.72-140.288 140.288-94.72 171.52-34.816 171.52 34.816 140.288 94.72 94.72 140.288 34.816 171.52-34.816 171.52-94.72 140.288-140.288 94.72-171.52 34.816zM465.92 104.96h-81.92v430.080h81.92v-430.080zM640 104.96h-81.92v430.080h81.92v-430.080z" />
<glyph unicode="&#xe201;" glyph-name="uniE201" horiz-adv-x="1255" d="M888.832-108.032q0 2.048-2.048 4.096l-257.024 445.44-2.048 4.096-2.048-4.096-257.024-445.44q-1.024-1.024-1.536-2.048t-1.536-2.048h523.264zM959.488-61.952q15.36-26.624 17.408-50.688t-8.192-41.472-31.744-27.648-52.224-10.24h-514.048q-30.72 0-52.224 10.24t-31.744 27.648-8.704 41.472 16.896 50.688l257.024 445.44q31.744 53.248 75.776 53.248 20.48 0 39.936-13.312t34.816-39.936zM1148.928 832q21.504 0 40.96-8.192t34.304-23.040 23.040-34.304 8.192-40.96v-648.192q0-22.528-8.192-41.984t-23.040-33.792-34.304-22.528-40.96-8.192h-111.616q-1.024 3.072-5.12 9.216l-41.984 74.752h158.72q9.216 0 15.872 6.144t6.656 16.384v648.192q0 9.216-6.656 15.872t-15.872 6.656h-1042.432q-9.216 0-15.872-6.656t-6.656-15.872v-648.192q0-10.24 6.656-16.384t15.872-6.144h158.72l-43.008-74.752q-2.048-2.048-2.56-4.608t-2.56-4.608h-110.592q-21.504 0-40.96 8.192t-34.304 22.528-23.040 33.792-8.192 41.984v648.192q0 21.504 8.192 40.96t23.040 34.304 34.304 23.040 40.96 8.192h1042.432z" />
<glyph unicode="&#xe202;" glyph-name="uniE202" d="M1024 779.776v-3.072l-44.032-401.408q-2.048-19.456-16.384-32.256t-32.768-12.8h-6.144q-20.48 2.048-33.28 18.432t-10.752 36.864l28.672 261.12-285.696-284.672q-14.336-15.36-34.816-15.36t-35.84 15.36q-14.336 14.336-14.336 35.328t14.336 35.328l285.696 284.672-261.12-28.672q-20.48-2.048-36.864 11.264t-18.432 33.792 10.752 36.352 33.28 17.92l404.48 44.032h10.24q2.048-1.024 3.584-1.024t3.584-1.024q1.024 0 1.536-0.512t1.536-0.512q3.072-1.024 7.168-3.072l2.048-2.048q2.048-1.024 4.608-2.56t4.608-3.584 3.072-4.096 3.072-4.096q1.024-1.024 1.024-1.536t1.024-1.536l3.072-6.144q0-3.072 1.024-4.096 0-2.048 0.512-3.072t0.512-3.072 0.512-2.56 0.512-1.536v-6.144zM446.464-48.64q20.48 2.048 36.864-10.752t18.432-33.28-11.264-36.864-33.792-18.432l-401.408-44.032h-5.12q-21.504 0-35.84 14.336t-14.336 35.84v5.12l44.032 401.408q2.048 20.48 17.92 33.792t36.352 11.264 33.792-18.432 11.264-36.864l-28.672-261.12 285.696 285.696q14.336 14.336 35.328 14.336t35.328-14.336 14.336-35.328-14.336-35.328l-285.696-285.696 261.12 28.672z" />
<glyph unicode="&#xe203;" glyph-name="uniE203" horiz-adv-x="985" d="M982.016 777.728q8.192-30.72-6.144-57.344l-478.208-873.472q-9.216-17.408-25.6-27.136t-35.84-11.776h-5.12q-18.432 0-34.304 8.704t-27.136 23.040l-356.352 508.928q-17.408 24.576-12.288 56.32 6.144 31.744 30.72 48.128 25.6 18.432 56.32 13.312 32.768-6.144 49.152-31.744l286.72-408.576 418.816 766.976q15.36 26.624 45.568 35.328t56.832-5.632q26.624-13.312 36.864-45.056z" />
<glyph unicode="&#xe204;" glyph-name="uniE204" horiz-adv-x="1784" d="M556.032-192q-19.456 0-32.768 12.288l-507.904 463.872q-15.36 15.36-15.36 35.84t15.36 35.84l507.904 463.872q14.336 13.312 34.304 12.288t34.304-15.36q14.336-15.36 12.8-35.328t-15.872-34.304l-467.968-427.008 467.968-427.008q14.336-14.336 15.872-34.304t-12.8-35.328-35.84-15.36zM1227.776-192q-22.528 0-35.84 15.36-14.336 15.36-13.312 35.328t16.384 34.304l467.968 427.008-467.968 427.008q-15.36 14.336-16.384 34.304t13.312 35.328q13.312 14.336 33.28 15.36t35.328-12.288l506.88-463.872q16.384-14.336 16.384-35.84t-16.384-35.84l-506.88-463.872q-14.336-12.288-32.768-12.288zM771.072-192q-8.192 0-12.288 2.048-19.456 5.12-29.696 22.016t-5.12 36.352l240.64 926.72q5.12 20.48 22.528 30.208t36.864 4.608q20.48-5.12 30.208-22.016t4.608-36.352l-240.64-926.72q-4.096-17.408-17.408-27.136t-29.696-9.728z" />
<glyph unicode="&#xe205;" glyph-name="uniE205" horiz-adv-x="1346" d="M49.152 52.736q37.888-6.144 70.656-23.552t58.368-43.008 43.008-58.368 23.552-69.632q3.072-16.384-7.168-28.672t-26.624-12.288h-166.912q-14.336 0-24.576 10.24t-10.24 24.576v166.912q0 16.384 12.288 26.624t27.648 7.168zM43.008 265.728q86.016 0 161.28-32.768t131.584-89.088 89.088-131.584 32.768-161.28q0-17.408-12.8-30.208t-30.208-12.8-30.208 12.8-12.8 30.208q0 67.584-26.112 127.488t-70.656 104.448-104.448 70.656-127.488 26.112q-17.408 0-30.208 12.8t-12.8 30.208 12.8 30.208 30.208 12.8zM43.008 482.816q87.040 0 167.936-22.528t151.040-64 127.488-98.816 98.816-127.488 64-151.040 22.528-167.936q0-17.408-12.288-30.208t-30.72-12.8q-17.408 0-30.208 12.8t-12.8 30.208q0 112.64-43.008 212.48t-117.248 174.080-173.568 117.248-211.968 43.008q-17.408 0-30.208 12.288t-12.8 29.696q0 18.432 12.8 30.72t30.208 12.288zM1192.96 832q31.744 0 59.392-12.288t48.128-32.768 32.768-48.64 12.288-59.904v-609.28q0-31.744-12.288-59.904t-32.768-48.64-48.128-32.768-59.392-12.288h-404.48q-3.072 43.008-12.288 86.016h416.768q27.648 0 47.616 19.456t19.968 48.128v609.28q0 28.672-19.968 48.128t-47.616 19.456h-939.008q-28.672 0-48.128-19.456t-19.456-48.128v-93.184q-21.504 5.12-43.008 7.68t-43.008 4.608v80.896q0 31.744 12.288 59.904t32.768 48.64 48.64 32.768 59.904 12.288h939.008z" />
<glyph unicode="&#xe206;" glyph-name="uniE206" horiz-adv-x="1492" d="M1312.768-102.912q2.048 0 3.584 0.512t3.584 0.512l-411.648 357.376-37.888-31.744q-26.624-23.552-58.88-34.816t-66.048-11.264q-32.768 0-65.536 11.264t-59.392 34.816l-36.864 31.744-412.672-357.376q2.048 0 3.584-0.512t3.584-0.512h1134.592zM516.096 314.88l-421.888 366.592q-5.12-15.36-5.12-27.648v-667.648q0-17.408 7.168-34.816zM178.176 742.912q-4.096 0-8.192-0.512t-9.216-1.536l518.144-449.536q28.672-25.6 66.56-25.088t66.56 25.088l518.144 449.536q-10.24 2.048-17.408 2.048h-1134.592zM1401.856 653.824q0 15.36-4.096 27.648l-421.888-366.592 418.816-363.52q7.168 14.336 7.168 34.816v667.648zM1312.768 832q36.864 0 69.632-13.824t56.832-38.4 38.4-56.832 14.336-69.12v-667.648q0-36.864-14.336-69.12t-38.4-56.832-56.832-38.4-69.632-13.824h-1134.592q-36.864 0-69.12 13.824t-56.832 38.4-38.4 56.832-13.824 69.12v667.648q0 36.864 13.824 69.12t38.4 56.832 56.832 38.4 69.12 13.824h1134.592z" />
<glyph unicode="&#xe207;" glyph-name="uniE207" horiz-adv-x="927" d="M129.024-192q-34.816 0-61.44 16.384-32.768 18.432-50.176 54.784t-17.408 86.528v708.608q0 50.176 17.408 86.528t50.176 54.784q32.768 19.456 72.704 15.872t82.944-28.16l614.4-354.304q43.008-24.576 66.048-57.856t23.040-71.168-23.040-71.168-66.048-57.856l-614.4-354.304q-48.128-28.672-94.208-28.672zM129.024 773.632q-20.48 0-32.768-8.192-37.888-22.528-37.888-91.136v-708.608q0-68.608 37.888-91.136t98.304 12.288l614.4 354.304q59.392 34.816 59.392 78.848t-59.392 78.848l-614.4 354.304q-35.84 20.48-65.536 20.48z" />
<glyph unicode="&#xe208;" glyph-name="uniE208" horiz-adv-x="633" d="M118.784-192q-24.576 0-46.080 9.216t-37.888 25.6-25.6 37.888-9.216 46.080v786.432q0 24.576 9.216 46.080t25.6 37.888 37.888 25.6 46.080 9.216 46.080-9.216 37.888-25.6 25.6-37.888 9.216-46.080v-786.432q0-24.576-9.216-46.080t-25.6-37.888-37.888-25.6-46.080-9.216zM118.784 780.8q-27.648 0-47.616-19.968t-19.968-47.616v-786.432q0-27.648 19.968-47.616t47.616-19.968q28.672 0 48.128 19.968t19.456 47.616v786.432q0 27.648-19.456 47.616t-48.128 19.968zM514.048-192q-24.576 0-46.080 9.216t-37.888 25.6-25.6 37.888-9.216 46.080v786.432q0 24.576 9.216 46.080t25.6 37.888 37.888 25.6 46.080 9.216 46.080-9.216 37.888-25.6 25.6-37.888 9.216-46.080v-786.432q0-24.576-9.216-46.080t-25.6-37.888-37.888-25.6-46.080-9.216zM514.048 780.8q-28.672 0-48.128-19.968t-19.456-47.616v-786.432q0-27.648 19.456-47.616t48.128-19.968 48.128 19.968 19.456 47.616v786.432q0 27.648-19.456 47.616t-48.128 19.968z" />
<glyph unicode="&#xe209;" glyph-name="uniE209" d="M955.392 724.48q0 16.384-11.264 27.648t-27.648 11.264h-808.96q-16.384 0-27.648-11.264t-11.264-27.648v-808.96q0-16.384 11.264-27.648t27.648-11.264h808.96q16.384 0 27.648 11.264t11.264 27.648v808.96zM916.48 832q22.528 0 41.984-8.704t33.792-23.040 23.040-33.792 8.704-41.984v-808.96q0-22.528-8.704-41.984t-23.040-34.304-33.792-23.040-41.984-8.192h-808.96q-22.528 0-41.984 8.192t-34.304 23.040-23.040 34.304-8.192 41.984v808.96q0 22.528 8.192 41.984t23.040 33.792 34.304 23.040 41.984 8.704h808.96zM862.208 470.528q13.312-10.24 13.312-26.624t-13.312-26.624l-269.312-214.016q-8.192-7.168-21.504-7.168-16.384 0-26.624 12.288-9.216 11.264-7.68 25.6t12.8 22.528l192.512 153.6h-176.128q-35.84 0-72.192-6.656t-70.656-23.552-64.512-46.080-52.736-73.728-35.84-106.496-13.312-144.896q0-14.336-9.728-24.064t-24.064-9.728-24.576 9.728-10.24 24.064q0 111.616 25.088 199.168t73.728 147.968 118.784 91.648 160.256 31.232h176.128l-192.512 152.576q-11.264 8.192-12.8 22.528t7.68 25.6q8.192 11.264 22.528 12.8t25.6-7.68l269.312-214.016z" />
<glyph unicode="&#xe20a;" glyph-name="uniE20A" d="M512-192q-70.656 0-136.192 18.432t-122.368 51.712-103.424 79.872-79.872 103.424-51.712 122.368-18.432 136.192 18.432 136.192 51.712 122.368 79.872 103.424 103.424 79.872 122.368 51.712 136.192 18.432q105.472 0 199.168-40.448t162.816-109.568 109.568-162.816 40.448-199.168q0-70.656-18.432-136.192t-51.712-122.368-79.872-103.424-103.424-79.872-122.368-51.712-136.192-18.432zM512 771.584q-93.184 0-175.616-35.328t-143.872-96.768-96.768-143.872-35.328-175.616 35.328-175.616 96.768-143.872 143.872-96.768 175.616-35.328 175.616 35.328 143.872 96.768 96.768 143.872 35.328 175.616-35.328 175.616-96.768 143.872-143.872 96.768-175.616 35.328zM650.24 327.168h-89.088v-321.536h-133.12v321.536h-65.536v110.592h65.536v65.536q0 68.608 32.256 106.496t112.128 37.888h89.088v-110.592h-56.32q-30.72 0-37.376-11.264t-6.656-33.792v-54.272h100.352z" />
<glyph unicode="&#xe20b;" glyph-name="uniE20B" horiz-adv-x="741" d="M652.288-192q-32.768 0-59.392 23.552l-220.16 200.704h-84.992q-59.392 0-111.616 22.528t-91.648 61.952-61.952 91.648-22.528 111.616 22.528 111.616 61.952 91.648 91.648 61.952 111.616 22.528h84.992l220.16 200.704q20.48 18.432 46.080 22.528t50.176-7.168q23.552-11.264 37.888-32.768t14.336-48.128v-845.824q0-26.624-14.336-48.128t-37.888-32.768q-16.384-8.192-36.864-8.192zM287.744 549.376q-47.104 0-89.088-17.92t-73.216-49.152-49.152-73.216-17.92-89.088 17.92-89.088 49.152-73.216 73.216-49.152 89.088-17.92h107.52l237.568-216.064q10.24-9.216 19.456-8.192t12.288 3.072q4.096 2.048 11.264 7.68t7.168 19.968v845.824q0 14.336-7.168 19.968t-11.264 7.68q-3.072 2.048-12.288 3.072t-19.456-8.192l-237.568-216.064h-107.52z" />
<glyph unicode="&#xe20c;" glyph-name="uniE20C" d="M795.648 459.264q-30.72-14.336-65.536-18.432 35.84 21.504 50.176 62.464-17.408-9.216-34.816-16.384t-36.864-11.264q-15.36 17.408-36.864 26.624t-45.056 9.216-44.032-8.704-35.84-24.064-24.064-35.84-8.704-44.032q0-6.144 0.512-12.8t1.536-12.8q-70.656 4.096-130.048 35.328t-101.376 82.432q-7.168-12.288-11.264-26.624t-4.096-29.696q0-29.696 13.824-54.272t36.352-39.936q-27.648 1.024-51.2 14.336v-1.024q0-40.96 25.6-71.68t64.512-38.912q-14.336-3.072-28.672-3.072h-10.752t-10.752 1.024q11.264-33.792 39.424-55.296t65.024-22.528q-28.672-23.552-64-35.84t-75.264-12.288h-13.824t-12.8 1.024q36.864-23.552 80.384-36.864t91.648-13.312q77.824 0 137.216 29.184t100.352 75.264 61.952 102.912 20.992 112.128q0 10.24-1.024 15.36 34.816 25.6 57.344 58.368zM512-192q-70.656 0-136.192 18.432t-122.368 51.712-103.424 79.872-79.872 103.424-51.712 122.368-18.432 136.192 18.432 136.192 51.712 122.368 79.872 103.424 103.424 79.872 122.368 51.712 136.192 18.432q105.472 0 199.168-40.448t162.816-109.568 109.568-162.816 40.448-199.168q0-70.656-18.432-136.192t-51.712-122.368-79.872-103.424-103.424-79.872-122.368-51.712-136.192-18.432zM512 772.608q-62.464 0-120.32-16.384t-108.032-45.568-91.648-70.656-70.656-91.648-45.568-108.032-16.384-120.32q0-94.208 35.328-176.64t96.768-143.872 143.872-96.768 176.64-35.328q62.464 0 120.32 16.384t108.032 45.568 91.648 70.656 70.656 91.648 45.568 108.032 16.384 120.32q0 93.184-35.84 175.616t-97.28 143.872-143.872 97.28-175.616 35.84z" />
<glyph unicode="&#xe20d;" glyph-name="uniE20D" horiz-adv-x="1355" d="M646.144-192q-33.792 0-58.368 24.576l-218.112 202.752-84.992 1.024q-59.392 1.024-111.616 24.064t-91.136 62.976-60.928 92.16-20.992 111.616 24.064 111.616 62.464 91.136 92.16 60.928 112.128 20.992l84.992-1.024 223.232 198.656q20.48 17.408 46.080 21.504t49.152-7.168q24.576-11.264 38.4-33.28t13.824-48.64l-10.24-845.824q0-26.624-14.336-48.128t-38.912-32.768q-17.408-7.168-36.864-7.168zM290.816 553.472q-48.128 0-90.112-17.408t-73.216-48.128-49.664-72.192-19.456-88.576q0-48.128 17.408-90.112t48.128-73.216 72.192-49.664 88.576-19.456l108.544-1.024 234.496-219.136q10.24-9.216 19.456-8.192t12.288 3.072 10.752 7.68 7.68 19.968l10.24 845.824q0 14.336-7.168 19.968t-10.24 7.68q-4.096 2.048-13.312 3.072t-19.456-8.192l-239.616-212.992zM1160.192 313.856l185.344 181.248q8.192 8.192 8.192 20.992t-8.192 20.992-20.48 8.192-20.48-8.192l-185.344-181.248-181.248 185.344q-8.192 9.216-20.992 9.216t-20.992-8.192-8.192-20.48 8.192-21.504l181.248-185.344-186.368-181.248q-8.192-8.192-8.192-20.48t8.192-20.48q7.168-9.216 20.48-9.216 12.288 0 20.48 8.192l186.368 181.248 181.248-185.344q7.168-9.216 20.48-9.216 12.288 0 20.48 9.216 9.216 8.192 9.216 20.48t-8.192 20.48z" />
<glyph unicode="&#xe20e;" glyph-name="uniE20E" d="M907.264 525.824q19.456 19.456 29.184 44.032t9.728 50.688-9.728 50.688-29.184 44.032q-19.456 20.48-44.032 30.208t-50.176 9.728q-26.624 0-50.688-9.728t-44.544-30.208l-101.376-101.376q-32.768-32.768-38.4-76.288t14.848-81.408l64.512 64.512q11.264 11.264 27.648 11.264t27.648-11.264 11.264-27.648-11.264-27.648l-65.536-64.512q38.912-20.48 82.432-14.848t76.288 38.4l101.376 101.376zM407.552 26.112q32.768 32.768 38.4 76.288t-14.848 82.432l-64.512-65.536q-13.312-11.264-27.648-11.264t-27.648 11.264q-11.264 11.264-11.264 27.648t11.264 27.648l64.512 64.512q-29.696 15.36-62.464 15.36-26.624 0-50.688-9.216t-44.544-29.696l-101.376-101.376q-19.456-19.456-29.184-44.032t-9.728-50.688 9.728-50.688 29.184-44.032 44.032-29.184 50.688-9.728 50.688 9.728 44.032 29.184l101.376 101.376zM962.56 770.56q30.72-30.72 46.080-69.632t15.36-79.872-15.36-79.872-46.080-69.632l-102.4-101.376q-30.72-31.744-69.632-47.104t-79.872-15.36q-30.72 0-61.44 9.216t-57.344 27.648l-104.448-104.448q21.504-30.72 30.208-66.048t5.632-71.168-18.432-69.632-43.008-61.44l-101.376-102.4q-30.72-30.72-69.632-46.080t-79.872-15.36-79.872 15.36-69.632 46.080-46.080 70.144-15.36 79.872 15.36 79.36 46.080 69.632l102.4 101.376q27.648 27.648 61.44 43.008t69.632 18.432 71.168-5.632 66.048-30.208l104.448 104.448q-21.504 30.72-30.208 66.048t-5.632 71.168 18.432 69.632 43.008 61.44l101.376 102.4q30.72 30.72 69.632 46.080t79.36 15.36 79.872-15.36 70.144-46.080z" />
<glyph unicode="&#xe20f;" glyph-name="uniE20F" d="M1009.664-108.032q14.336-14.336 14.336-34.816t-14.336-34.816q-16.384-14.336-34.816-14.336-20.48 0-34.816 14.336l-428.032 428.032-428.032-428.032q-14.336-14.336-34.816-14.336-18.432 0-34.816 14.336-14.336 14.336-14.336 34.816t14.336 34.816l428.032 428.032-428.032 428.032q-14.336 14.336-14.336 34.816t14.336 34.816 34.816 14.336 34.816-14.336l428.032-428.032 428.032 428.032q14.336 14.336 34.816 14.336t34.816-14.336 14.336-34.816-14.336-34.816l-428.032-428.032z" />
<glyph unicode="&#xe210;" glyph-name="uniE210" horiz-adv-x="4761" d="M372.736 686.592q-12.288 8.192-26.112 11.776t-28.16 3.584q-35.84 0-55.808-19.456t-19.968-58.368v-55.296h115.712v-124.928h-115.712v-431.104h-151.552v431.104h-91.136v124.928h91.136v65.536q0 95.232 53.248 146.432t142.336 51.2q27.648 0 48.128-3.584t37.888-11.776v-130.048zM581.632 12.8h-154.624v807.936h154.624v-807.936zM903.168 0.512q-60.416 0-110.592 21.504t-86.016 59.904-55.808 91.648-19.968 116.736q0 64.512 19.968 117.76t55.808 91.648 86.016 59.904 110.592 21.504 110.592-21.504 86.016-59.904 55.808-91.648 19.968-117.76q0-63.488-19.968-116.736t-55.808-91.648-86.016-59.904-110.592-21.504zM903.168 450.048q-28.672 0-50.688-11.776t-37.376-33.28-23.040-50.688-7.68-64 7.68-64 23.040-50.176 37.376-32.768 50.688-11.776q58.368 0 89.088 44.544t30.72 114.176q0 34.816-7.68 64t-23.040 50.688-37.888 33.28-51.2 11.776zM1721.344 214.528l99.328 354.304h149.504l-169.984-556.032h-141.312l-90.112 340.992-91.136-340.992h-141.312l-168.96 556.032h153.6l99.328-354.304 91.136 354.304h117.76zM2157.568-192h-154.624v760.832h154.624v-46.080q18.432 22.528 55.808 40.448t83.456 17.92q60.416 0 107.52-23.552t79.36-63.488 49.152-92.672 16.896-111.104-16.896-111.104-49.152-92.672-79.36-62.976-107.52-23.040q-46.080 0-83.456 17.92t-55.808 40.448v-250.88zM2157.568 199.168q14.336-28.672 42.496-46.592t61.952-17.92q30.72 0 55.808 11.776t41.984 32.768 26.112 49.664 9.216 61.44q0 33.792-9.216 62.464t-26.112 49.664-41.984 32.768-55.808 11.776q-34.816 0-62.464-18.432t-41.984-46.080v-183.296zM2752.512 12.8h-153.6v807.936h153.6v-807.936zM3145.728 12.8v29.696q-14.336-14.336-52.224-26.624t-83.968-12.288q-41.984 0-79.36 11.776t-65.536 34.816-44.544 56.832-16.384 76.8q0 39.936 16.384 72.192t45.568 55.808 68.608 36.352 84.48 12.8q18.432 0 37.376-2.56t35.84-7.168 31.232-10.24 22.528-11.776v40.96q0 35.84-22.016 60.416t-69.12 24.576q-32.768 0-52.736-13.824t-29.184-38.4h-146.432q6.144 37.888 25.088 70.656t49.664 56.32 70.656 37.376 88.064 13.824q111.616 0 172.544-56.832t60.928-157.184v-354.304h-147.456zM3145.728 204.288q-11.264 22.528-39.424 35.328t-61.952 12.8q-18.432 0-35.84-4.096t-31.232-12.288-22.528-20.992-8.704-30.208q0-18.432 8.704-31.232t22.528-21.504 31.232-12.288 35.84-3.584q33.792 0 61.952 12.8t39.424 35.328v39.936zM3433.472-192l80.896 202.752-211.968 558.080h161.792l128-369.664 126.976 369.664h155.648l-289.792-760.832h-151.552zM4371.456 194.048q-14.336-89.088-77.312-141.312t-168.448-52.224q-60.416 0-110.080 20.992t-84.992 59.392-54.784 91.648-19.456 117.76q0 62.464 19.968 116.224t55.296 92.16 84.48 60.416 107.52 22.016q61.44 0 108.032-20.48t78.848-56.832 48.64-87.040 16.384-112.128v-47.104h-370.688q4.096-62.464 36.352-97.792t84.48-35.328q38.912 0 66.56 16.896t36.864 52.736h142.336zM4008.96 350.72h215.040q-1.024 44.032-26.112 74.24t-73.216 30.208q-45.056 0-75.264-26.112t-40.448-78.336zM4760.576 417.28q-15.36 9.216-35.328 13.824t-41.472 4.608q-38.912 0-68.096-19.968t-37.376-58.88v-344.064h-154.624v556.032h154.624v-55.296q17.408 29.696 50.176 48.64t73.728 18.944q20.48 0 36.352-3.072t22.016-7.168v-153.6z" />
<glyph unicode="&#xe211;" glyph-name="uniE211" d="M425.984 121.344q-13.312 0-23.552 6.144-26.624 14.336-26.624 54.272v276.48q0 39.936 26.624 54.272 24.576 15.36 60.416-4.096l238.592-138.24q34.816-20.48 34.816-50.176t-34.816-50.176l-238.592-138.24q-17.408-10.24-36.864-10.24zM425.984 496.128q-8.192 0-12.288-3.072-15.36-8.192-15.36-34.816v-276.48q0-27.648 15.36-34.816 13.312-9.216 37.888 4.096l238.592 138.24q23.552 14.336 23.552 30.72t-23.552 30.72l-238.592 138.24q-13.312 7.168-25.6 7.168zM512-192q-70.656 0-136.192 18.432t-122.368 51.712-103.424 79.872-79.872 103.424-51.712 122.368-18.432 136.192 18.432 136.192 51.712 122.368 79.872 103.424 103.424 79.872 122.368 51.712 136.192 18.432q105.472 0 199.168-40.448t162.816-109.568 109.568-162.816 40.448-199.168q0-70.656-18.432-136.192t-51.712-122.368-79.872-103.424-103.424-79.872-122.368-51.712-136.192-18.432zM512 809.472q-101.376 0-190.464-38.4t-155.648-104.96-104.96-155.648-38.4-190.464 38.4-190.464 104.96-155.648 155.648-104.96 190.464-38.4 190.464 38.4 155.648 104.96 104.96 155.648 38.4 190.464-38.4 190.464-104.96 155.648-155.648 104.96-190.464 38.4z" />
<glyph unicode="&#xe212;" glyph-name="uniE212" d="M424.96 93.696q-22.528 0-37.888 15.36t-15.36 36.864v348.16q0 21.504 15.36 36.864t37.888 15.36q21.504 0 36.864-15.36t15.36-36.864v-348.16q0-21.504-15.36-36.864t-36.864-15.36zM424.96 523.776q-12.288 0-21.504-8.704t-9.216-20.992v-348.16q0-12.288 9.216-20.992t21.504-8.704 20.992 8.704 8.704 20.992v348.16q0 12.288-8.704 20.992t-20.992 8.704zM599.040 93.696q-21.504 0-36.864 15.36t-15.36 36.864v348.16q0 21.504 15.36 36.864t36.864 15.36q22.528 0 37.888-15.36t15.36-36.864v-348.16q0-21.504-15.36-36.864t-37.888-15.36zM599.040 523.776q-12.288 0-20.992-8.704t-8.704-20.992v-348.16q0-12.288 8.704-20.992t20.992-8.704 21.504 8.704 9.216 20.992v348.16q0 12.288-9.216 20.992t-21.504 8.704zM512-192q-70.656 0-136.192 18.432t-122.368 51.712-103.424 79.872-79.872 103.424-51.712 122.368-18.432 136.192 18.432 136.192 51.712 122.368 79.872 103.424 103.424 79.872 122.368 51.712 136.192 18.432q105.472 0 199.168-40.448t162.816-109.568 109.568-162.816 40.448-199.168q0-70.656-18.432-136.192t-51.712-122.368-79.872-103.424-103.424-79.872-122.368-51.712-136.192-18.432zM512 809.472q-101.376 0-190.464-38.4t-155.648-104.96-104.96-155.648-38.4-190.464 38.4-190.464 104.96-155.648 155.648-104.96 190.464-38.4 190.464 38.4 155.648 104.96 104.96 155.648 38.4 190.464-38.4 190.464-104.96 155.648-155.648 104.96-190.464 38.4z" />
<glyph unicode="&#xe301;" glyph-name="uniE301" horiz-adv-x="1265" d="M899.072-107.008l-257.024 445.44-257.024-445.44h514.048zM642.048 507.392l403.456-699.392h-806.912zM1264.64 832v-868.352h-210.944l-49.152 84.992h175.104v698.368h-1094.656v-698.368h194.56l-49.152-84.992h-230.4v868.352h1264.64z" />
<glyph unicode="&#xe302;" glyph-name="uniE302" d="M1024 832l-52.224-481.28-103.424 11.264 29.696 271.36-295.936-295.936-72.704 72.704 294.912 295.936-270.336-29.696-11.264 103.424zM495.616 229.888l-296.96-295.936 271.36 29.696 11.264-103.424-481.28-52.224 52.224 481.28 103.424-11.264-29.696-270.336 295.936 295.936z" />
<glyph unicode="&#xe303;" glyph-name="uniE303" horiz-adv-x="901" d="M901.12 769.536l-525.312-961.536-375.808 536.576 107.52 74.752 253.952-363.52 424.96 776.192z" />
<glyph unicode="&#xe304;" glyph-name="uniE304" horiz-adv-x="1827" d="M560.128-192l-560.128 512 560.128 512 67.584-73.728-480.256-438.272 480.256-438.272zM1266.688-192l-67.584 73.728 480.256 438.272-480.256 438.272 67.584 73.728 560.128-512zM838.656-167.424l-97.28 24.576 247.808 950.272 96.256-24.576z" />
<glyph unicode="&#xe305;" glyph-name="uniE305" horiz-adv-x="1360" d="M0 23.040q44.032 0 83.456-16.896t68.608-46.080 46.080-68.608 16.896-83.456h-215.040v215.040zM0 241.152q89.088 0 167.936-34.304t137.728-93.184 93.184-137.728 34.304-167.936h-90.112q0 70.656-27.136 133.12t-73.728 109.056-109.056 73.728-133.12 27.136v90.112zM0 467.456q136.192 0 256.512-51.712t209.92-141.312 141.312-209.92 51.712-256.512h-89.088q0 117.76-45.056 221.696t-122.368 181.248-181.248 122.368-221.696 45.056v89.088zM1359.872 832v-956.416h-581.632q-2.048 22.528-5.12 45.056t-7.168 44.032h504.832v777.216h-1121.28v-166.912q-45.056 8.192-90.112 12.288v244.736h1300.48z" />
<glyph unicode="&#xe306;" glyph-name="uniE306" horiz-adv-x="1492" d="M1401.856-47.616v724.992l-416.768-362.496zM161.792-102.912h1168.384l-413.696 358.4-171.008-147.456-171.008 147.456zM89.088 677.376v-724.992l417.792 362.496zM1341.44 742.912h-1190.912l594.944-517.12zM1491.968 832v-1024h-1491.968v1024h1491.968z" />
<glyph unicode="&#xe307;" glyph-name="uniE307" horiz-adv-x="887" d="M0-192v1024l886.784-512zM49.152 747.008v-854.016l739.328 427.008z" />
<glyph unicode="&#xe308;" glyph-name="uniE308" horiz-adv-x="633" d="M237.568-192h-237.568v1024h237.568v-1024zM51.2-140.8h135.168v921.6h-135.168v-921.6zM632.832-192h-237.568v1024h237.568v-1024zM446.464-140.8h135.168v921.6h-135.168v-921.6z" />
<glyph unicode="&#xe309;" glyph-name="uniE309" d="M949.248 757.248h-874.496v-874.496h874.496v874.496zM1024 832v-1024h-1024v1024h1024zM551.936 417.28q-37.888 0-77.824-7.168t-77.312-25.6-70.144-50.176-57.344-79.872-38.912-115.2-14.336-157.184h-74.752q0 121.856 27.648 216.576t79.872 160.256 128.512 99.328 174.592 33.792h191.488l-208.896 165.888 47.104 58.368 329.728-261.12-329.728-262.144-47.104 58.368 208.896 165.888h-191.488z" />
<glyph unicode="&#xe30a;" glyph-name="uniE30A" d="M1024-192h-1024v1024h1024v-1024zM60.416-131.584h903.168v903.168h-903.168v-903.168zM650.24 327.168h-89.088v-321.536h-133.12v321.536h-65.536v110.592h65.536v65.536q0 68.608 32.256 106.496t112.128 37.888h89.088v-110.592h-56.32q-30.72 0-37.376-11.264t-6.656-33.792v-54.272h100.352z" />
<glyph unicode="&#xe30b;" glyph-name="uniE30B" horiz-adv-x="572" d="M572.416-192l-302.080 276.48h-270.336v471.040h270.336l302.080 276.48v-1024zM48.128 132.608h240.64l235.52-216.064v806.912l-235.52-216.064h-240.64v-374.784z" />
<glyph unicode="&#xe30c;" glyph-name="uniE30C" d="M1024-192h-1024v1024h1024v-1024zM60.416-131.584h903.168v903.168h-903.168v-903.168zM818.176 499.2q-16.384-8.192-33.792-12.8t-36.864-7.68q39.936 25.6 54.272 68.608-18.432-10.24-37.888-17.92t-39.936-11.776q-36.864 38.912-90.112 38.912-25.6 0-48.128-9.728t-38.912-26.112-26.112-38.912-9.728-48.128q0-7.168 0.512-14.336t1.536-14.336q-76.8 4.096-142.336 38.912t-111.616 90.112q-7.168-14.336-11.776-29.696t-4.608-32.768q0-31.744 15.36-58.368t39.936-44.032q-15.36 1.024-29.696 5.12t-26.624 10.24v-1.024q0-45.056 28.16-78.336t71.168-42.496q-8.192-2.048-15.872-3.072t-15.872-1.024h-12.288t-12.288 2.048q12.288-36.864 43.52-60.928t72.192-25.088q-31.744-24.576-70.656-38.4t-81.92-13.824h-15.36t-14.336 1.024q40.96-26.624 88.576-40.448t99.84-13.824q84.992 0 150.528 31.744t110.080 81.92 67.584 112.64 23.040 122.88v8.704t-1.024 8.704q18.432 12.288 33.792 28.672t27.648 34.816z" />
<glyph unicode="&#xe30d;" glyph-name="uniE30D" horiz-adv-x="1111" d="M572.416-192l-302.080 276.48h-270.336v471.040h270.336l302.080 276.48v-1024zM48.128 132.608h240.64l235.52-216.064v806.912l-235.52-216.064h-240.64v-374.784zM1111.040 491.008l-33.792 33.792-171.008-171.008-172.032 171.008-33.792-33.792 171.008-171.008-171.008-171.008 33.792-33.792 172.032 171.008 171.008-171.008 33.792 33.792-171.008 171.008z" />
<glyph unicode="&#xe30e;" glyph-name="uniE30E" d="M577.536 432.64l79.872 79.872 51.2-43.008-83.968-83.968 57.344-57.344 248.832 248.832-161.792 161.792-248.832-248.832zM446.464 207.36l-81.92-81.92-47.104 47.104 81.92 81.92-57.344 57.344-248.832-248.832 161.792-161.792 248.832 248.832zM577.536 339.456l-84.992-84.992 104.448-104.448-342.016-342.016-254.976 254.976 342.016 342.016 104.448-104.448 84.992 84.992-104.448 104.448 342.016 342.016 254.976-254.976-342.016-342.016z" />
<glyph unicode="&#xe30f;" glyph-name="uniE30F" d="M583.68 320l440.32-440.32-71.68-71.68-440.32 440.32-440.32-440.32-71.68 71.68 440.32 440.32-440.32 440.32 71.68 71.68 440.32-440.32 440.32 440.32 71.68-71.68z" />
<glyph unicode="&#xe310;" glyph-name="uniE310" horiz-adv-x="791" d="M557.056 460.288q16.384-10.24 16.384-23.552t-16.384-22.528l-220.16-128q-17.408-9.216-28.672-2.56t-11.264 26.112v253.952q0 19.456 11.264 26.112t28.672-2.56l220.16-126.976zM395.264 98.816q69.632 0 131.072 26.624t107.52 72.704 72.704 107.52 26.624 131.072-26.624 131.072-72.704 107.52-107.52 72.704-131.072 26.624-131.072-26.624-107.52-72.704-72.704-107.52-26.624-131.072 26.624-131.072 72.704-107.52 107.52-72.704 131.072-26.624zM395.264 832q81.92 0 153.6-31.232t125.44-84.992 84.992-125.44 31.232-153.6-31.232-153.6-84.992-125.44-125.44-84.992-153.6-31.232-153.6 31.232-125.44 84.992-84.992 125.44-31.232 153.6 31.232 153.6 84.992 125.44 125.44 84.992 153.6 31.232zM762.88-71.168q3.072 0 5.12-0.512t4.096-0.512v-24.576q-6.144 3.072-12.288 3.072t-10.752-3.072-5.632-9.216v-54.272h-24.576v87.040h24.576v-8.192q5.12 10.24 19.456 10.24zM688.128-107.008q-2.048 16.384-16.384 16.384t-17.408-16.384h33.792zM671.744-71.168q19.456 0 29.696-11.776t10.24-31.232v-7.168h-58.368q2.048-21.504 19.456-21.504 12.288 0 15.36 11.264h22.528q-2.048-14.336-11.776-22.528t-26.112-8.192q-19.456 0-31.232 12.8t-11.776 33.28q0 19.456 12.288 32.256t29.696 12.8zM632.832-73.216l-45.056-118.784h-23.552l12.288 31.744-32.768 87.040h25.6l19.456-57.344 20.48 57.344h23.552zM519.168-129.536q-4.096 7.168-16.384 7.168-5.12 0-10.24-2.56t-5.12-7.68q0-6.144 5.12-8.704t10.24-2.56q13.312 0 16.384 8.192v6.144zM505.856-71.168q35.84 0 35.84-33.792v-55.296h-22.528v5.12q-6.144-6.144-21.504-6.144-13.312 0-22.528 7.168t-9.216 20.48q0 12.288 9.216 20.48t23.552 8.192q6.144 0 11.776-1.536t8.704-3.584v6.144q0 13.312-14.336 13.312-10.24 0-13.312-8.192h-22.528q2.048 11.264 11.776 19.456t25.088 8.192zM433.152-33.28h24.576v-126.976h-24.576v126.976zM380.928-140.8q9.216 0 14.848 6.656t5.632 17.92q0 10.24-5.632 17.408t-14.848 7.168q-5.12 0-9.728-3.072t-6.656-7.168v-28.672q5.12-10.24 16.384-10.24zM386.048-71.168q19.456 0 29.696-13.312t10.24-31.744-10.24-32.256-29.696-13.824q-7.168 0-12.8 3.072t-8.704 6.144v-38.912h-24.576v118.784h24.576v-7.168q7.168 9.216 21.504 9.216zM311.296-73.216h23.552l-26.624-87.040h-21.504l-14.336 53.248-14.336-53.248h-22.528l-26.624 87.040h24.576l15.36-55.296 14.336 55.296h18.432l14.336-55.296zM167.936-141.824q9.216 0 13.824 7.168t4.608 18.432-4.608 17.92-13.824 6.656-13.824-6.656-4.608-17.92 4.608-18.432 13.824-7.168zM167.936-71.168q19.456 0 31.232-12.288t11.776-32.768-11.776-33.28-31.232-12.8-30.72 12.8-11.264 33.28 11.264 32.768 30.72 12.288zM93.184-33.28h24.576v-126.976h-24.576v126.976zM40.96-62.976q0 14.336 8.192 22.528t22.528 8.192q10.24 0 13.312-2.048v-20.48q-3.072 3.072-8.192 3.072-12.288 0-12.288-12.288v-9.216h18.432v-19.456h-18.432v-67.584h-23.552v67.584h-14.336v19.456h14.336v10.24z" />
<glyph unicode="&#xe311;" glyph-name="uniE311" d="M378.88 90.624v461.824l399.36-230.4zM401.408 512.512v-381.952l331.776 191.488zM512-192q-70.656 0-136.192 18.432t-122.368 51.712-103.424 79.872-79.872 103.424-51.712 122.368-18.432 136.192 18.432 136.192 51.712 122.368 79.872 103.424 103.424 79.872 122.368 51.712 136.192 18.432q105.472 0 199.168-40.448t162.816-109.568 109.568-162.816 40.448-199.168q0-70.656-18.432-136.192t-51.712-122.368-79.872-103.424-103.424-79.872-122.368-51.712-136.192-18.432zM512 809.472q-101.376 0-190.464-38.4t-155.648-104.96-104.96-155.648-38.4-190.464 38.4-190.464 104.96-155.648 155.648-104.96 190.464-38.4 190.464 38.4 155.648 104.96 104.96 155.648 38.4 190.464-38.4 190.464-104.96 155.648-155.648 104.96-190.464 38.4z" />
<glyph unicode="&#xe312;" glyph-name="uniE312" d="M477.184 93.696h-105.472v452.608h105.472v-452.608zM394.24 116.224h60.416v407.552h-60.416v-407.552zM652.288 93.696h-105.472v452.608h105.472v-452.608zM569.344 116.224h60.416v407.552h-60.416v-407.552zM512-192q-70.656 0-136.192 18.432t-122.368 51.712-103.424 79.872-79.872 103.424-51.712 122.368-18.432 136.192 18.432 136.192 51.712 122.368 79.872 103.424 103.424 79.872 122.368 51.712 136.192 18.432q105.472 0 199.168-40.448t162.816-109.568 109.568-162.816 40.448-199.168q0-70.656-18.432-136.192t-51.712-122.368-79.872-103.424-103.424-79.872-122.368-51.712-136.192-18.432zM512 809.472q-101.376 0-190.464-38.4t-155.648-104.96-104.96-155.648-38.4-190.464 38.4-190.464 104.96-155.648 155.648-104.96 190.464-38.4 190.464 38.4 155.648 104.96 104.96 155.648 38.4 190.464-38.4 190.464-104.96 155.648-155.648 104.96-190.464 38.4z" />
</font>
</defs>
</svg>
